<?xml version="1.0" encoding="utf-8"?>
<!-- Generator: Adobe Illustrator 19.2.0, SVG Export Plug-In . SVG Version: 6.00 Build 0)  -->
<svg version="1.1" id="Layer_1" xmlns="http://www.w3.org/2000/svg" xmlns:xlink="http://www.w3.org/1999/xlink" x="0px" y="0px"
	 viewBox="0 0 600 600" style="enable-background:new 0 0 600 600;" xml:space="preserve">
<style type="text/css">
	.st0{fill:#323232;}
	.st1{fill:#C8C8C8;}
</style>
<g>
	<path d="M394.4,394.4V200.1l-83.5,149h-18.1l-83.9-149v194.3h-31.9V143.1h33.6l91,163.2L393,143.1h33.3v251.3H394.4z"/>
</g>
<g>
	<path class="st0" d="M34.4,345.9l100.4,0L56,279.8v-5.1l78.8-66.1l-100.4,0v-7.5l111,0v7.1l-82.7,69.2l82.7,68.9v7.1l-111,0V345.9z
		"/>
</g>
<rect x="34.4" y="345.9" transform="matrix(-1 3.329066e-05 -3.329066e-05 -1 179.8068 699.3719)" class="st1" width="111" height="7.5"/>
<rect x="34.4" y="201" transform="matrix(-1 3.329066e-05 -3.329066e-05 -1 179.7581 409.6146)" class="st1" width="111" height="7.6"/>
<g>
	<path class="st0" d="M575.1,208.1l-100.4,0l78.8,66.1v5.1l-78.8,66.1l100.4,0v7.5l-111,0v-7.1l82.7-69.2l-82.7-68.9v-7.1l111,0
		V208.1z"/>
</g>
<rect x="464.1" y="200.5" class="st1" width="111" height="7.5"/>
<rect x="464.1" y="345.4" class="st1" width="111" height="7.6"/>
</svg>
