<?xml version="1.0" encoding="utf-8"?>
<!-- Generator: Adobe Illustrator 19.2.0, SVG Export Plug-In . SVG Version: 6.00 Build 0)  -->
<svg version="1.1" id="Layer_1" xmlns="http://www.w3.org/2000/svg" xmlns:xlink="http://www.w3.org/1999/xlink" x="0px" y="0px"
	 viewBox="0 0 600 600" style="enable-background:new 0 0 600 600;" xml:space="preserve">
<style type="text/css">
	.st0{fill:none;}
	.st1{font-family:'Raleway-Medium';}
	.st2{font-size:354px;}
	.st3{fill:#323232;}
	.st4{font-family:'Raleway-ExtraLight';}
	.st5{font-size:156.3278px;}
	.st6{fill:#C8C8C8;}
</style>
<rect x="147" y="136" class="st0" width="350" height="299"/>
<text transform="matrix(1 0 0 1 147 394.4189)" class="st1 st2">M</text>
<rect x="-63" y="179.5" class="st0" width="211.5" height="350"/>
<text transform="matrix(2.354863e-05 1.4137 -1 3.329060e-05 34.3796 179.5002)" class="st3 st4 st5">M</text>
<rect x="34.4" y="345.9" transform="matrix(-1 3.329066e-05 -3.329066e-05 -1 179.8068 699.3719)" class="st6" width="111" height="7.5"/>
<rect x="34.4" y="201" transform="matrix(-1 3.329066e-05 -3.329066e-05 -1 179.7581 409.6146)" class="st6" width="111" height="7.6"/>
<rect x="461" y="24.5" class="st0" width="211.5" height="350"/>
<text transform="matrix(-2.354850e-05 -1.4137 1 -3.329051e-05 575.1199 374.5008)" class="st3 st4 st5">M</text>
<rect x="464.1" y="200.5" class="st6" width="111" height="7.5"/>
<rect x="464.1" y="345.4" class="st6" width="111" height="7.6"/>
</svg>
